<svg xmlns="http://www.w3.org/2000/svg" viewBox="0 0 800 350" width="800" height="350">
  <rect width="800" height="350" fill="white"/>
  <defs><marker id="arrow" markerWidth="10" markerHeight="7" refX="10" refY="3.5" orient="auto"><polygon points="0 0, 10 3.5, 0 7" fill="#5f6368"/></marker></defs>
  <text x="400" y="30" text-anchor="middle" font-family="Arial, sans-serif" font-size="18" fill="#333" font-weight="bold">Vector Autoregression (VAR) Model Structure</text>
  <rect x="50" y="70" width="130" height="50" rx="8" fill="#e8f0fe" stroke="#1a73e8" stroke-width="2"/>
  <text x="115" y="100" text-anchor="middle" font-family="Arial, sans-serif" font-size="12" fill="#1a73e8" font-weight="bold">GDP Growth</text>
  <rect x="50" y="140" width="130" height="50" rx="8" fill="#fef7e0" stroke="#f9ab00" stroke-width="2"/>
  <text x="115" y="170" text-anchor="middle" font-family="Arial, sans-serif" font-size="12" fill="#e37400" font-weight="bold">Inflation</text>
  <rect x="50" y="210" width="130" height="50" rx="8" fill="#e8f5e9" stroke="#34a853" stroke-width="2"/>
  <text x="115" y="240" text-anchor="middle" font-family="Arial, sans-serif" font-size="12" fill="#1e7e34" font-weight="bold">Interest Rate</text>
  <rect x="250" y="100" width="300" height="130" rx="12" fill="#f3e5f5" stroke="#7b1fa2" stroke-width="2"/>
  <text x="400" y="130" text-anchor="middle" font-family="Arial, sans-serif" font-size="14" fill="#7b1fa2" font-weight="bold">VAR(p) System</text>
  <text x="400" y="155" text-anchor="middle" font-family="Arial, sans-serif" font-size="11" fill="#5f6368">Yₜ = c + A₁Yₜ₋₁ + ... + AₚYₜ₋ₚ + εₜ</text>
  <text x="400" y="180" text-anchor="middle" font-family="Arial, sans-serif" font-size="11" fill="#5f6368">Every variable depends on</text>
  <text x="400" y="198" text-anchor="middle" font-family="Arial, sans-serif" font-size="11" fill="#5f6368">lagged values of ALL variables</text>
  <line x1="180" y1="95" x2="250" y2="140" stroke="#5f6368" stroke-width="1.5" marker-end="url(#arrow)"/>
  <line x1="180" y1="165" x2="250" y2="165" stroke="#5f6368" stroke-width="1.5" marker-end="url(#arrow)"/>
  <line x1="180" y1="235" x2="250" y2="190" stroke="#5f6368" stroke-width="1.5" marker-end="url(#arrow)"/>
  <rect x="620" y="70" width="150" height="50" rx="8" fill="#1a73e8" opacity="0.15" stroke="#1a73e8" stroke-width="1.5"/>
  <text x="695" y="100" text-anchor="middle" font-family="Arial, sans-serif" font-size="12" fill="#1a73e8" font-weight="bold">Forecasts</text>
  <rect x="620" y="140" width="150" height="50" rx="8" fill="#34a853" opacity="0.15" stroke="#34a853" stroke-width="1.5"/>
  <text x="695" y="170" text-anchor="middle" font-family="Arial, sans-serif" font-size="12" fill="#1e7e34" font-weight="bold">IRFs</text>
  <rect x="620" y="210" width="150" height="50" rx="8" fill="#ea4335" opacity="0.15" stroke="#ea4335" stroke-width="1.5"/>
  <text x="695" y="240" text-anchor="middle" font-family="Arial, sans-serif" font-size="12" fill="#ea4335" font-weight="bold">Granger Causality</text>
  <line x1="550" y1="140" x2="620" y2="95" stroke="#5f6368" stroke-width="1.5" marker-end="url(#arrow)"/>
  <line x1="550" y1="165" x2="620" y2="165" stroke="#5f6368" stroke-width="1.5" marker-end="url(#arrow)"/>
  <line x1="550" y1="190" x2="620" y2="235" stroke="#5f6368" stroke-width="1.5" marker-end="url(#arrow)"/>
  <rect x="150" y="290" width="500" height="40" rx="8" fill="#f5f5f5" stroke="#999" stroke-width="1"/>
  <text x="400" y="315" text-anchor="middle" font-family="Arial, sans-serif" font-size="12" fill="#555">Trading signal: forecast macro variables → position in rates, equities, FX</text>
</svg>