<svg xmlns="http://www.w3.org/2000/svg" viewBox="0 0 800 160" width="800" height="160">
  <rect width="800" height="160" fill="white"/>
  <defs><marker id="arrow" markerWidth="10" markerHeight="7" refX="10" refY="3.5" orient="auto"><polygon points="0 0, 10 3.5, 0 7" fill="#5f6368"/></marker></defs>
  <text x="400" y="30" text-anchor="middle" font-family="Arial, sans-serif" font-size="16" fill="#202124" font-weight="bold">Weather Data Pipeline for Trading</text>
  <rect x="30" y="60" width="150" height="60" rx="8" fill="#e8f0fe" stroke="#1a73e8" stroke-width="2"/><text x="105" y="85" text-anchor="middle" font-family="Arial, sans-serif" font-size="12" fill="#1a73e8" font-weight="bold">Weather Stations</text><text x="105" y="102" text-anchor="middle" font-family="Arial, sans-serif" font-size="10" fill="#5f6368">NOAA, ERA5</text><line x1="180" y1="90" x2="200" y2="90" stroke="#5f6368" stroke-width="2" marker-end="url(#arrow)"/><rect x="205" y="60" width="150" height="60" rx="8" fill="#e6f4ea" stroke="#34a853" stroke-width="2"/><text x="280" y="85" text-anchor="middle" font-family="Arial, sans-serif" font-size="12" fill="#34a853" font-weight="bold">Forecast Models</text><text x="280" y="102" text-anchor="middle" font-family="Arial, sans-serif" font-size="10" fill="#5f6368">GFS, ECMWF</text><line x1="355" y1="90" x2="375" y2="90" stroke="#5f6368" stroke-width="2" marker-end="url(#arrow)"/><rect x="380" y="60" width="150" height="60" rx="8" fill="#fef7e0" stroke="#a87000" stroke-width="2"/><text x="455" y="85" text-anchor="middle" font-family="Arial, sans-serif" font-size="12" fill="#a87000" font-weight="bold">Signal Compute</text><text x="455" y="102" text-anchor="middle" font-family="Arial, sans-serif" font-size="10" fill="#5f6368">HDD/CDD deviation</text><line x1="530" y1="90" x2="550" y2="90" stroke="#5f6368" stroke-width="2" marker-end="url(#arrow)"/><rect x="555" y="60" width="150" height="60" rx="8" fill="#fce8e6" stroke="#ea4335" stroke-width="2"/><text x="630" y="85" text-anchor="middle" font-family="Arial, sans-serif" font-size="12" fill="#ea4335" font-weight="bold">Commodity Trade</text><text x="630" y="102" text-anchor="middle" font-family="Arial, sans-serif" font-size="10" fill="#5f6368">NG, power, grains</text>
</svg>